<?xml version="1.0" encoding="UTF-8" standalone="no"?>
<svg
   version="1.1"
   id="Layer_1"
   x="0px"
   y="0px"
   viewBox="0 0 122.88 62.63"
   style="enable-background:new 0 0 122.88 62.63"
   xml:space="preserve"
   sodipodi:docname="infinity-loop.svg"
   inkscape:version="1.2 (dc2aedaf03, 2022-05-15)"
   xmlns:inkscape="http://www.inkscape.org/namespaces/inkscape"
   xmlns:sodipodi="http://sodipodi.sourceforge.net/DTD/sodipodi-0.dtd"
   xmlns="http://www.w3.org/2000/svg"
   xmlns:svg="http://www.w3.org/2000/svg"><defs
     id="defs9" /><sodipodi:namedview
     id="namedview7"
     pagecolor="#ffffff"
     bordercolor="#999999"
     borderopacity="1"
     inkscape:showpageshadow="0"
     inkscape:pageopacity="0"
     inkscape:pagecheckerboard="0"
     inkscape:deskcolor="#d1d1d1"
     showgrid="false"
     inkscape:zoom="9.8470054"
     inkscape:cx="59.205817"
     inkscape:cy="31.278545"
     inkscape:window-width="1920"
     inkscape:window-height="1009"
     inkscape:window-x="-8"
     inkscape:window-y="-8"
     inkscape:window-maximized="1"
     inkscape:current-layer="Layer_1" /><path
     d="M 44.94,20.02 C 37.17,11.97 26.27,6.84 17.12,15.68 c -2.99,2.88 -5.13,6.8 -6.07,11 -1.12,4.98 -0.28,9.53 1.79,13.28 1.84,3.34 4.65,6.07 7.96,7.95 3.32,1.89 7.1,2.91 10.85,2.8 4.12,-0.12 8.24,-1.64 11.7,-4.91 4.89,-4.63 9.16,-11.55 13.33,-18.3 4.56,-7.38 9,-14.57 14.45,-19.43 3.89,-3.47 8.05,-5.71 12.27,-6.94 6.06,-1.76 12.12,-1.37 17.63,0.55 5.42,1.88 10.28,5.22 14.02,9.42 3.18,3.56 5.6,7.8 6.92,12.33 1.92,6.6 0.76,14.51 -2.74,21.43 -2.48,4.89 -6.16,9.38 -10.78,12.62 -4.75,3.33 -10.47,5.34 -16.87,5.15 -7.32,-0.22 -15.4,-3.3 -23.73,-10.6 l 6.93,-7.92 c 6.31,5.53 12.08,7.85 17.09,8 3.98,0.12 7.56,-1.15 10.56,-3.25 3.13,-2.19 5.66,-5.3 7.4,-8.74 2.36,-4.66 3.2,-9.75 2.04,-13.75 -0.86,-2.96 -2.5,-5.79 -4.69,-8.25 -2.6,-2.92 -5.92,-5.22 -9.56,-6.49 -3.55,-1.23 -7.44,-1.5 -11.28,-0.38 -2.73,0.79 -5.5,2.31 -8.19,4.71 -4.37,3.9 -8.39,10.4 -12.51,17.08 -4.54,7.35 -9.19,14.88 -15.03,20.4 -5.48,5.19 -12.07,7.6 -18.67,7.8 C 26.23,61.41 20.54,59.9 15.6,57.08 10.64,54.26 6.4,50.12 3.6,45.04 0.36,39.17 -0.95,32.08 0.78,24.37 2.17,18.19 5.36,12.4 9.83,8.09 12.84,5.19 16.43,2.94 20.46,1.67 24.52,0.39 28.98,0.12 33.7,1.18 39.78,2.55 46.21,6.14 52.55,12.72 Z"
     id="path2"
     style="fill:#cc33ff" /></svg>
