<?xml version="1.0" encoding="UTF-8" standalone="no"?>
<svg
   id="Layer_1"
   data-name="Layer 1"
   viewBox="0 0 122.88 122.88"
   version="1.1"
   sodipodi:docname="magnifier-glass.svg"
   inkscape:version="1.2 (dc2aedaf03, 2022-05-15)"
   xmlns:inkscape="http://www.inkscape.org/namespaces/inkscape"
   xmlns:sodipodi="http://sodipodi.sourceforge.net/DTD/sodipodi-0.dtd"
   xmlns="http://www.w3.org/2000/svg"
   xmlns:svg="http://www.w3.org/2000/svg">
  <sodipodi:namedview
     id="namedview11"
     pagecolor="#ffffff"
     bordercolor="#999999"
     borderopacity="1"
     inkscape:showpageshadow="0"
     inkscape:pageopacity="0"
     inkscape:pagecheckerboard="0"
     inkscape:deskcolor="#d1d1d1"
     showgrid="false"
     inkscape:zoom="6.5511069"
     inkscape:cx="60.905738"
     inkscape:cy="61.516322"
     inkscape:window-width="1920"
     inkscape:window-height="1009"
     inkscape:window-x="-8"
     inkscape:window-y="-8"
     inkscape:window-maximized="1"
     inkscape:current-layer="Layer_1" />
  <defs
     id="defs4">
    <style
       id="style2">.cls-1{fill-rule:evenodd;}</style>
  </defs>
  <title
     id="title6">glass-zoom</title>
  <path
     class="cls-1"
     d="M42.31,0A42.31,42.31,0,0,1,77.52,65.75l8.56,8.56.09-.09a5.38,5.38,0,0,1,7.59,0l27.55,27.55a5.39,5.39,0,0,1,0,7.59l-12,12a5.39,5.39,0,0,1-7.59,0L74.22,93.76a5.38,5.38,0,0,1,0-7.59l.09-.09-8.56-8.56A42.31,42.31,0,1,1,42.31,0Zm0,9.5A32.81,32.81,0,1,1,9.5,42.31,32.81,32.81,0,0,1,42.31,9.5Z"
     id="path8"
     style="fill:#ff33ff" />
</svg>
