<?xml version="1.0" encoding="UTF-8" standalone="no" ?>
<!DOCTYPE svg PUBLIC "-//W3C//DTD SVG 1.1//EN" "http://www.w3.org/Graphics/SVG/1.1/DTD/svg11.dtd">
<svg width="122.88" height="98.27" version="1.1" xmlns="http://www.w3.org/2000/svg" xmlns:xlink="http://www.w3.org/1999/xlink" xml:space="preserve" name="">
  <defs>
    <clipPath id="path0">
      <path d="M0.0 0.0 L0.0 98.27 122.88 98.27 122.88 0.0 0.0 0.0 Z" clip-rule="evenodd"/>
    </clipPath>
    <g id="use0" x="-0.00002122" y="-0.00045585" width="122.88" height="98.2705">
      <path d="M4.84 70.96 L90.76 70.96 C90.7647 70.96 90.7695 70.96 90.7742 70.96 92.0456 70.96 93.2644 70.4524 94.16 69.55 95.063 68.6429 95.57 67.4151 95.57 66.1352 95.57 66.1401 95.57 66.1451 95.57 66.15 L95.57 4.8 C95.57 4.7958 95.57 4.7916 95.57 4.7874 95.57 3.5185 95.0623 2.3023 94.16 1.41 93.9019 1.1195 93.5319 0.9533 93.1433 0.9533 93.4169 0.9533 93.6841 1.0358 93.91 1.19 93.0536 0.4234 91.9446 -0.0005 90.7952 -0.0005 90.7735 -0.0005 90.7517 -0.0003 90.73 0.0 L4.81 0.0 C4.81 -0.0 4.81 -0.0 4.81 -0.0 2.1574 -0.0 0.0055 2.1474 0.0 4.8 L0.0 66.15 C-0.0 66.1547 -0.0 66.1595 -0.0 66.1642 -0.0 67.4356 0.5076 68.6544 1.41 69.55 2.3154 70.4529 3.5419 70.96 4.8207 70.96 4.8171 70.96 4.8136 70.96 4.81 70.96 L4.84 70.96 Z M32.15 98.27 L118.07 98.27 C118.0747 98.27 118.0795 98.27 118.0842 98.27 119.3556 98.27 120.5744 97.7624 121.47 96.86 122.373 95.9529 122.88 94.7251 122.88 93.4452 122.88 93.4501 122.88 93.4551 122.88 93.46 L122.88 32.11 C122.88 32.1058 122.88 32.1016 122.88 32.0974 122.88 30.8285 122.3723 29.6123 121.47 28.72 121.2629 28.472 120.9565 28.3287 120.6334 28.3287 120.8412 28.3287 121.0448 28.3881 121.22 28.5 120.3583 27.7087 119.2311 27.2696 118.0612 27.2696 118.0408 27.2696 118.0204 27.2697 118.0 27.27 L112.62 27.27 112.62 33.05 117.13 33.05 117.13 92.56 33.06 92.56 33.06 88.36 27.31 88.36 27.31 93.46 C27.31 93.4647 27.31 93.4695 27.31 93.4742 27.31 94.7456 27.8176 95.9644 28.72 96.86 29.6271 97.763 30.8549 98.27 32.1348 98.27 32.1299 98.27 32.1249 98.27 32.12 98.27 L32.15 98.27 Z M18.5 84.61 L104.42 84.61 C104.4242 84.61 104.4284 84.61 104.4326 84.61 105.7015 84.61 106.9177 84.1023 107.81 83.2 108.7127 82.2995 109.22 81.0768 109.22 79.8018 109.22 79.8045 109.22 79.8073 109.22 79.81 L109.22 18.46 C109.22 18.4553 109.22 18.4505 109.22 18.4458 109.22 17.1744 108.7124 15.9556 107.81 15.06 107.5444 14.7632 107.165 14.5935 106.7667 14.5935 107.05 14.5935 107.3266 14.6795 107.56 14.84 106.7036 14.0734 105.5946 13.6495 104.4452 13.6495 104.4235 13.6495 104.4017 13.6497 104.38 13.65 L99.0 13.65 99.0 19.39 103.51 19.39 103.51 78.9 19.4 78.9 19.4 74.7 13.65 74.7 13.65 79.81 C13.6555 82.4626 15.8074 84.61 18.46 84.61 18.46 84.61 18.46 84.61 18.46 84.61 L18.5 84.61 Z M24.68 54.27 C24.6833 54.27 24.6867 54.27 24.69 54.27 28.5008 54.27 31.59 51.1808 31.59 47.37 31.59 43.5592 28.5008 40.47 24.69 40.47 20.8792 40.47 17.79 43.5592 17.79 47.37 17.79 47.3733 17.79 47.3767 17.79 47.38 17.79 51.1852 20.8748 54.27 24.68 54.27 Z M53.68 24.68 L67.49 48.56 82.14 11.5 13.77 11.5 13.77 16.09 19.51 16.38 25.26 30.46 28.13 20.4 36.75 20.4 44.22 39.65 53.7 24.71 53.68 24.68 Z M89.86 65.27 L5.75 65.27 5.75 5.74 89.86 5.74 89.86 65.27 Z" fill="#0095FF" fill-rule="nonzero" id=""/>
    </g>
  </defs>
  <g transform="matrix(1.0 0.0 -0.0 -1.0 0.0 98.27) ">
    <g clip-path="url(#path0)" id="">
      <use xlink:href="#use0" id="Layer_1"/>
    </g>
  </g>
</svg>
